<svg width="188" height="45" viewBox="0 0 188 45" fill="none" xmlns="http://www.w3.org/2000/svg">
<g clip-path="url(#clip0_0_587)">
<path d="M47.1282 35.1797H50.4453V27.3265H55.6943L60.7611 35.1797H64.552L59.1936 26.7982C62.693 25.6361 64.8436 22.5018 64.8436 18.9098C64.8436 14.4021 61.4172 10.5283 56.0953 10.5283H49.4595C48.172 10.5283 47.1282 11.5711 47.1282 12.8575V35.1797ZM56.0953 24.4035H50.4453V13.416H56.0953C59.4124 13.416 61.5265 15.9516 61.5265 18.9098C61.5265 21.9031 59.4124 24.4035 56.0953 24.4035Z" fill="#141518"/>
<path d="M75.4676 21.1281C78.1284 21.1281 80.1337 22.8889 80.1337 25.671H70.547C70.6195 22.7832 72.6248 21.1281 75.4676 21.1281ZM83.0497 27.9953C83.1952 27.1148 83.1952 26.4457 83.1952 25.9879C83.1952 21.9028 79.8419 18.7686 75.5408 18.7686C70.3283 18.7686 67.3752 22.3606 67.3752 27.1853C67.3752 31.7986 70.0731 35.5667 75.6498 35.5667C79.8053 35.5667 82.5026 33.172 83.0497 30.4604H79.8419C79.3314 31.8338 78.1284 32.9959 75.6498 32.9959C72.0047 32.9959 70.656 30.7069 70.5104 27.9953H83.0497Z" fill="#141518"/>
<path d="M100.16 19.1912V21.938C99.1028 20.0011 96.7698 18.7686 94.3643 18.7686C89.2974 18.7686 85.871 22.6423 85.871 27.1853C85.871 31.6929 89.2974 35.5667 94.3643 35.5667C96.7698 35.5667 99.1028 34.3342 100.16 32.3973V35.1793H103.295V19.1912H100.16ZM94.5464 32.8198C91.1931 32.8198 89.0056 30.2491 89.0056 27.1853C89.0056 24.1215 91.1931 21.5154 94.5464 21.5154C97.9728 21.5154 100.16 24.1215 100.16 27.1853C100.16 30.2491 97.9728 32.8198 94.5464 32.8198Z" fill="#141518"/>
<path d="M115.386 26.2697C112.323 25.3188 110.611 25.0723 110.611 23.4523C110.611 22.0084 111.923 21.2337 113.672 21.2337C115.86 21.2337 117.026 22.2902 117.026 24.1566H120.088C120.088 20.952 117.317 18.7686 113.709 18.7686C110.282 18.7686 107.548 20.3885 107.548 23.3819C107.548 26.2697 109.517 27.0092 112.032 27.7839C115.349 28.8756 117.317 29.0517 117.317 30.8477C117.317 32.4325 116.005 33.1368 114 33.1368C111.777 33.1368 110.1 32.2212 110.1 29.7913H107.001C107.001 33.6651 110.209 35.5667 113.854 35.5667C117.572 35.5667 120.343 33.982 120.343 30.7773C120.343 27.7487 117.901 27.0444 115.386 26.2697Z" fill="#141518"/>
<path d="M131.612 35.5667C136.935 35.5667 140.361 31.6929 140.361 27.1853C140.361 22.6423 136.935 18.7686 131.612 18.7686C126.363 18.7686 122.937 22.6423 122.937 27.1853C122.937 31.6929 126.363 35.5667 131.612 35.5667ZM131.612 32.8198C128.258 32.8198 126.072 30.2491 126.072 27.1853C126.072 24.1215 128.258 21.5154 131.612 21.5154C135.039 21.5154 137.226 24.1215 137.226 27.1853C137.226 30.2491 135.039 32.8198 131.612 32.8198Z" fill="#141518"/>
<path d="M143.634 35.1793H146.805V26.9387C146.805 24.0862 148.336 21.4802 151.507 21.4802C154.606 21.4802 155.699 23.7341 155.699 26.6922V35.1793H158.87V25.7414C158.87 23.4876 158.506 22.0789 157.594 20.8815C156.611 19.5433 154.934 18.7686 152.637 18.7686C149.83 18.7686 147.789 20.0715 146.805 22.0084V19.1912H143.634V35.1793Z" fill="#141518"/>
<path d="M176.602 19.1912V21.938C175.545 20.0011 173.212 18.7686 170.806 18.7686C165.74 18.7686 162.313 22.6423 162.313 27.1853C162.313 31.6929 165.74 35.5667 170.806 35.5667C173.212 35.5667 175.545 34.3342 176.602 32.3973V35.1793H179.736V19.1912H176.602ZM170.989 32.8198C167.635 32.8198 165.448 30.2491 165.448 27.1853C165.448 24.1215 167.635 21.5154 170.989 21.5154C174.415 21.5154 176.602 24.1215 176.602 27.1853C176.602 30.2491 174.415 32.8198 170.989 32.8198Z" fill="#141518"/>
<path d="M184.829 35.1797H188V12.2752C188 11.3104 187.217 10.5283 186.251 10.5283H184.829V35.1797Z" fill="#141518"/>
<path d="M27.547 44.3669C24.8583 44.3669 21.4341 44.3646 18.0196 44.363C14.6324 44.3605 11.2549 44.3589 8.61274 44.3589L7.63697 44.3669C3.78597 44.3669 0.652771 41.2366 0.652771 37.3893V7.58713C0.652771 3.73968 3.78597 0.609375 7.63697 0.609375H16.0286C25.9072 0.609375 33.9444 8.63908 33.9444 18.5086C33.9444 22.7584 32.4116 26.8773 29.6843 30.0919C30.8209 31.6072 31.9373 33.1868 32.7596 34.3609C34.1245 36.3212 34.2877 38.8403 33.1888 40.9428C32.0941 43.0548 29.9327 44.3669 27.547 44.3669Z" stroke="#BAA7FC" stroke-miterlimit="10"/>
<path d="M27.547 42.0904C24.8591 42.0904 21.4349 42.0879 18.0212 42.0863C14.63 42.0839 11.2476 42.0823 8.60394 42.0823L7.63776 42.0904C5.0431 42.0904 2.93152 39.9815 2.93152 37.3884V7.58715C2.93152 4.99487 5.0423 2.88525 7.63776 2.88525H16.0294C24.6517 2.88525 31.6673 9.8935 31.6673 18.5087C31.6673 22.8837 29.8434 27.0009 26.6925 29.9345C28.1266 31.7486 29.7036 33.9667 30.894 35.6659C31.7717 36.9267 31.8755 38.5432 31.1689 39.8924C30.4664 41.2487 29.0798 42.0904 27.547 42.0904Z" stroke="#6C3EF8" stroke-miterlimit="10"/>
<path d="M23.4531 29.6127C27.033 27.2175 29.3983 23.1345 29.3983 18.5048C29.3983 11.1264 23.4129 5.14648 16.0275 5.14648H15.9873H7.64468C7.63665 5.14648 7.63665 5.14648 7.62862 5.14648C6.2851 5.14648 5.19904 6.23155 5.19904 7.57381V36.4446V37.401C5.19904 38.7433 6.2851 39.8284 7.62862 39.8284L8.58599 39.8204C13.8956 39.8204 22.19 39.8284 27.556 39.8284C28.2318 39.8284 28.8512 39.4506 29.1569 38.8559C29.4707 38.2611 29.4224 37.5377 29.0363 36.9831C27.6686 35.03 25.1586 31.4854 23.4531 29.6127Z" fill="#6E40F8"/>
<path opacity="0.3" d="M20.1877 29.2845C27.0745 29.2845 32.6574 23.7068 32.6574 16.8263C32.6574 9.94587 27.0745 4.36816 20.1877 4.36816C13.3009 4.36816 7.71802 9.94587 7.71802 16.8263C7.71802 23.7068 13.3009 29.2845 20.1877 29.2845Z" fill="url(#paint0_radial_0_587)"/>
<path opacity="0.2" d="M8.83766 23.0954C14.1472 23.0954 18.4514 18.7411 18.4514 13.3699C18.4514 7.99875 14.1472 3.64453 8.83766 3.64453C3.52815 3.64453 -0.776062 7.99875 -0.776062 13.3699C-0.776062 18.7411 3.52815 23.0954 8.83766 23.0954Z" fill="url(#paint1_radial_0_587)"/>
</g>
<defs>
<radialGradient id="paint0_radial_0_587" cx="0" cy="0" r="1" gradientUnits="userSpaceOnUse" gradientTransform="translate(20.1877 16.8263) rotate(90) scale(12.4582 12.4697)">
<stop stop-color="#E4DCFE"/>
<stop offset="1" stop-color="white" stop-opacity="0"/>
</radialGradient>
<radialGradient id="paint1_radial_0_587" cx="0" cy="0" r="1" gradientUnits="userSpaceOnUse" gradientTransform="translate(8.83766 13.3699) rotate(90) scale(9.72541 9.61372)">
<stop stop-color="#E4DCFE"/>
<stop offset="1" stop-color="white" stop-opacity="0"/>
</radialGradient>
<clipPath id="clip0_0_587">
<rect width="188" height="45" fill="white"/>
</clipPath>
</defs>
</svg>
